<svg width="31" height="32" viewBox="0 0 31 32" xmlns="http://www.w3.org/2000/svg" xmlns:xlink="http://www.w3.org/1999/xlink"><defs><path id="a" d="M.2.245h30.478v30.478H.2z"/></defs><g fill="none" fill-rule="evenodd"><g transform="translate(.072 .395)"><mask id="b" fill="#fff"><use xlink:href="#a"/></mask><path d="M30.678 15.484c0 8.416-6.823 15.24-15.239 15.24S.2 23.9.2 15.483C.2 7.067 7.023.244 15.44.244c8.415 0 15.238 6.823 15.238 15.24" fill="#FFF" mask="url(#b)"/></g><path d="M20.898 9.06c0-.836.627-1.46 1.462-1.46.834 0 1.46.624 1.46 1.46s-.626 1.461-1.46 1.461c-.835 0-1.462-.625-1.462-1.461M5.742 18.475c0-3.43 2.788-6.25 6.217-6.29l.076-.018.174.001c.466.002.55.002.573.004h.185c.297 0 .455.156.455.455v.835c0 .297-.158.394-.253.425l-.042.01h-1.395a4.6 4.6 0 00-4.3 4.578 4.61 4.61 0 004.297 4.588l.094.017.713-.014c2.375-.12 4.29-2.084 4.352-4.469v-3.125c0-.168.018-.345.057-.557a3.47 3.47 0 013.437-2.934 3.51 3.51 0 013.436 2.87c.034.07.035 1.51.035 1.525 0 .02 0 .163-.005.207l.001.18c0 .3-.157.458-.456.458h-.835c-.298 0-.393-.159-.425-.253l-.007-.044-.002-1.412a1.757 1.757 0 00-3.512 0l-.029 3.154c-.098 3.216-2.679 5.878-5.885 6.082l-.133.018h-1.051v-.029c-3.243-.265-5.772-3.003-5.772-6.262" fill="#A3C538"/></g></svg>